<?xml version="1.0" standalone="no"?>
<!DOCTYPE svg PUBLIC "-//W3C//DTD SVG 20010904//EN"
 "http://www.w3.org/TR/2001/REC-SVG-20010904/DTD/svg10.dtd">
<svg version="1.0" xmlns="http://www.w3.org/2000/svg"
 width="500.000000pt" height="500.000000pt" viewBox="0 0 500.000000 500.000000"
 preserveAspectRatio="xMidYMid meet">

<g transform="translate(0.000000,500.000000) scale(0.100000,-0.100000)"
fill="#000000" stroke="none">
<path d="M2379 3977 c-37 -13 -86 -36 -110 -52 -51 -36 -124 -132 -140 -186
l-12 -39 -125 0 -124 0 -34 -34 c-19 -19 -34 -41 -34 -50 0 -14 -20 -16 -166
-16 l-166 0 -34 -34 -34 -34 0 -1231 0 -1231 29 -32 29 -33 1029 -3 c761 -2
1035 1 1056 9 60 25 57 -45 57 1289 0 1327 3 1262 -55 1288 -17 8 -83 12 -183
12 l-158 0 -13 35 c-19 54 -51 65 -185 65 l-114 0 -30 65 c-67 142 -213 235
-367 235 -27 0 -80 -11 -116 -23z m208 -202 c28 -14 59 -37 67 -50 l16 -25
-172 0 -173 0 36 36 c66 66 145 79 226 39z m413 -325 l0 -50 -500 0 -500 0 0
50 0 50 500 0 500 0 0 -50z m-1200 -110 c0 -70 17 -111 55 -128 19 -9 187 -12
646 -12 540 0 624 2 650 15 37 20 49 50 49 126 l0 59 60 0 c32 0 71 -5 85 -12
57 -26 55 21 55 -1087 0 -730 -3 -1027 -11 -1045 -6 -13 -25 -32 -43 -41 -28
-15 -106 -16 -859 -13 l-829 3 -29 33 -29 32 0 1031 0 1031 34 34 c32 32 38
34 100 34 l66 0 0 -60z"/>
<path d="M2155 2886 c-16 -8 -59 -43 -94 -79 l-64 -66 -34 29 c-19 17 -45 30
-59 30 -37 0 -78 -25 -92 -55 -26 -57 -10 -95 76 -177 63 -60 95 -75 139 -63
34 8 247 216 264 257 17 41 1 88 -40 115 -39 26 -54 28 -96 9z"/>
<path d="M2534 2766 c-24 -24 -34 -43 -34 -66 0 -23 10 -41 34 -66 l34 -34
276 0 c301 0 321 3 344 55 23 51 7 107 -39 131 -22 11 -85 14 -305 14 l-276 0
-34 -34z"/>
<path d="M2160 2389 c-14 -6 -55 -39 -91 -76 l-67 -65 -38 26 c-21 14 -49 26
-62 26 -35 0 -77 -25 -90 -55 -26 -57 -10 -95 76 -177 63 -60 95 -75 139 -63
34 8 247 216 264 257 17 41 1 88 -40 115 -37 25 -53 27 -91 12z"/>
<path d="M2534 2266 c-24 -24 -34 -43 -34 -66 0 -23 10 -41 34 -66 l34 -34
276 0 c301 0 321 3 344 55 23 51 7 107 -39 131 -22 11 -85 14 -305 14 l-276 0
-34 -34z"/>
<path d="M2155 1889 c-11 -6 -50 -41 -86 -76 l-67 -65 -38 26 c-59 40 -121 29
-150 -25 -30 -58 -14 -98 74 -181 103 -98 129 -94 275 50 122 120 142 149 133
197 -12 60 -91 102 -141 74z"/>
<path d="M2551 1786 c-59 -33 -67 -102 -17 -152 l34 -34 276 0 c305 0 322 3
346 59 19 47 5 98 -33 121 -30 19 -52 20 -307 20 -209 -1 -281 -4 -299 -14z"/>
</g>
</svg>
